<?xml version="1.0" encoding="utf-8"?>
<!-- Generator: Adobe Illustrator 21.0.2, SVG Export Plug-In . SVG Version: 6.00 Build 0)  -->
<svg version="1.1" id="Camada_1" xmlns="http://www.w3.org/2000/svg" xmlns:xlink="http://www.w3.org/1999/xlink" x="0px" y="0px"
	 viewBox="0 0 144 126" style="enable-background:new 0 0 144 126;" xml:space="preserve">
<style type="text/css">
	.st0{fill:#FFFFFF;}
</style>
<g>
	<path class="st0" d="M66.3,117H3.8c-1.6,0-2.8,1.3-2.8,2.8c0,1.6,1.3,2.8,2.8,2.8h62.5c0,0,0,0,0,0c1.6,0,2.8-1.3,2.8-2.8
		C69.2,118.2,67.9,117,66.3,117z"/>
	<path class="st0" d="M140.2,117H77.7c-1.6,0-2.8,1.3-2.8,2.8c0,1.6,1.3,2.8,2.8,2.8h62.5c0,0,0,0,0,0c1.6,0,2.8-1.3,2.8-2.8
		C143,118.2,141.7,117,140.2,117z"/>
	<path class="st0" d="M51.8,3.4H7.9C4.1,3.4,1,6.5,1,10.3v79.9c0,3.8,3.1,6.9,6.9,6.9c14.1,0,43.9,0,43.9,0c8.4,0,15.4,6.3,17,14.2
		h0.3V20.7C69.2,11.1,61.4,3.4,51.8,3.4z M33.7,78c0,1.9-1.6,3.5-3.5,3.5H18.7c-1.9,0-3.5-1.6-3.5-3.5V56.5c0-1.9,1.6-3.5,3.5-3.5
		h11.5c1.9,0,3.5,1.6,3.5,3.5V78z M55,65.2c0,1.9-1.6,3.5-3.5,3.5h-8.7c-1.9,0-3.5-1.6-3.5-3.5v-8.7c0-1.9,1.5-3.5,3.5-3.5h8.7
		c1.9,0,3.5,1.6,3.5,3.5V65.2z M55,43.9c0,1.9-1.6,3.5-3.5,3.5H18.7c-1.9,0-3.5-1.6-3.5-3.5V22.4c0-1.9,1.6-3.5,3.5-3.5h32.8
		c1.9,0,3.5,1.6,3.5,3.5V43.9z"/>
	<path class="st0" d="M136.1,3.4H92.2c-9.6,0-17.3,7.8-17.3,17.3v90.6h0.3c1.6-7.9,8.6-14.2,17-14.2c0,0,29.8,0,43.9,0
		c3.8,0,6.9-3.1,6.9-6.9V10.3C143,6.5,139.9,3.4,136.1,3.4z M126,81.5H91.9c-1.6,0-2.8-1.3-2.8-2.8s1.3-2.8,2.8-2.8H126
		c1.6,0,2.8,1.3,2.8,2.8S127.5,81.5,126,81.5z M126,67.3H91.9c-1.6,0-2.8-1.3-2.8-2.8c0-1.6,1.3-2.8,2.8-2.8H126
		c1.6,0,2.8,1.3,2.8,2.8C128.8,66,127.5,67.3,126,67.3z M126,53.1H91.9c-1.6,0-2.8-1.3-2.8-2.8c0-1.6,1.3-2.8,2.8-2.8H126
		c1.6,0,2.8,1.3,2.8,2.8S127.5,53.1,126,53.1z M126,38.9H91.9c-1.6,0-2.8-1.3-2.8-2.8c0-1.6,1.3-2.8,2.8-2.8H126
		c1.6,0,2.8,1.3,2.8,2.8S127.5,38.9,126,38.9z M126,24.7H91.9c-1.6,0-2.8-1.3-2.8-2.8c0-1.6,1.3-2.8,2.8-2.8H126
		c1.6,0,2.8,1.3,2.8,2.8S127.5,24.7,126,24.7z"/>
</g>
</svg>
