<?xml version="1.0" encoding="UTF-8"?>
<!DOCTYPE svg PUBLIC "-//W3C//DTD SVG 1.1//EN" "http://www.w3.org/Graphics/SVG/1.1/DTD/svg11.dtd">
<svg version="1.1" xmlns="http://www.w3.org/2000/svg" xmlns:xlink="http://www.w3.org/1999/xlink" x="0" y="0" width="300" height="28" viewBox="0, 0, 300, 28">
  <g id="Layer_1">
    <path d="M150,19.785 C146.805,19.785 144.215,17.195 144.215,14 C144.215,10.805 146.805,8.215 150,8.215 C153.195,8.215 155.785,10.805 155.785,14 C155.785,17.195 153.195,19.785 150,19.785 z" fill="#DDDDDD"/>
    <path d="M134.986,13.5 L134.986,14.5 L0,14.5 L0,13.5 L134.986,13.5 z" fill="#E5E5E5"/>
    <path d="M150,24.773 L150,24.773 C144.05,24.773 139.227,19.95 139.227,14 L139.227,14 C139.227,8.05 144.05,3.227 150,3.227 L150,3.227 C155.95,3.227 160.773,8.05 160.773,14 L160.773,14 C160.773,19.95 155.95,24.773 150,24.773 z" fill="#E5E5E5" display="none"/>
    <path d="M300,13.5 L300,14.5 L164.986,14.5 L164.986,13.5 L300,13.5 z" fill="#E5E5E5"/>
  </g>
</svg>
